<svg xmlns="http://www.w3.org/2000/svg" viewBox="0 0 960 540" font-family="Segoe UI, system-ui, sans-serif">
  <rect width="960" height="540" fill="#0f1419"/>
  <text x="48" y="52" fill="#e7ecf3" font-size="26" font-weight="700">Dryback = percentage POINTS, not “% of peak”</text>
  <text x="48" y="82" fill="#9aabbc" font-size="15">Crop-steering sensors report how-full % (VWC). The drink-down is high minus low.</text>

  <!-- tank -->
  <rect x="80" y="120" width="160" height="340" rx="12" fill="#1a2332" stroke="#2d3a4d" stroke-width="2"/>
  <rect x="88" y="148" width="144" height="248" fill="#1e3a4a"/>
  <!-- water 58-78 -->
  <rect x="88" y="148" width="144" height="62" fill="#1a2332"/>
  <rect x="88" y="210" width="144" height="186" fill="#2a9d8f"/>
  <line x1="70" y1="210" x2="260" y2="210" stroke="#38bdf8" stroke-width="2" stroke-dasharray="4 3"/>
  <line x1="70" y1="396" x2="260" y2="396" stroke="#fbbf24" stroke-width="2" stroke-dasharray="4 3"/>
  <text x="268" y="216" fill="#38bdf8" font-size="16" font-weight="600">Peak 78%</text>
  <text x="268" y="402" fill="#fbbf24" font-size="16" font-weight="600">Trough 58%</text>
  <text x="120" y="320" fill="#0f1419" font-size="18" font-weight="700">20 pts</text>
  <text x="100" y="490" fill="#9aabbc" font-size="13">Substrate “fullness” gauge</text>

  <!-- callouts -->
  <rect x="420" y="140" width="480" height="120" rx="12" fill="#1a2332" stroke="#34d399" stroke-width="2"/>
  <text x="440" y="175" fill="#34d399" font-size="18" font-weight="700">Correct: 20 percentage POINTS</text>
  <text x="440" y="205" fill="#e7ecf3" font-size="16">Dryback = 78 − 58 = 20 points</text>
  <text x="440" y="235" fill="#9aabbc" font-size="14">This is what “20-point dryback” means in steering SOPs.</text>

  <rect x="420" y="290" width="480" height="140" rx="12" fill="#1a2332" stroke="#ff8a4c" stroke-width="2"/>
  <text x="440" y="325" fill="#ff8a4c" font-size="18" font-weight="700">Not the same: “20% of peak”</text>
  <text x="440" y="355" fill="#e7ecf3" font-size="16">20% of 78 ≈ 15.6 points (would land near 62%)</text>
  <text x="440" y="385" fill="#9aabbc" font-size="14">Only say “percent of peak” if you mean fractions of the peak reading.</text>
  <text x="440" y="410" fill="#9aabbc" font-size="13">If unclear, always mean points: peak − trough.</text>

  <text x="48" y="525" fill="#5a6a7a" font-size="12">Fact-check pack · educational diagram · Cannabis White Papers</text>
</svg>
