<svg xmlns="http://www.w3.org/2000/svg" viewBox="0 0 960 540" font-family="Segoe UI, system-ui, sans-serif">
  <rect width="960" height="540" fill="#0f1419"/>
  <text x="48" y="48" fill="#e7ecf3" font-size="24" font-weight="700">Dissolved oxygen saturation vs temperature</text>
  <text x="48" y="76" fill="#9aabbc" font-size="14">Clean freshwater at 1 atm. Warm water still raises pathogen risk even when saturation only falls gently.</text>

  <rect x="80" y="110" width="800" height="360" rx="12" fill="#1a2332" stroke="#2d3a4d"/>
  <!-- axes -->
  <line x1="140" y1="400" x2="820" y2="400" stroke="#5a6a7a" stroke-width="2"/>
  <line x1="140" y1="400" x2="140" y2="160" stroke="#5a6a7a" stroke-width="2"/>
  <text x="460" y="440" fill="#9aabbc" font-size="14">Water temperature (°C)</text>
  <text x="100" y="290" fill="#9aabbc" font-size="13" transform="rotate(-90 100 290)">DO (mg/L)</text>

  <!-- y ticks -->
  <text x="125" y="405" text-anchor="end" fill="#5a6a7a" font-size="12">0</text>
  <text x="125" y="340" text-anchor="end" fill="#5a6a7a" font-size="12">6</text>
  <text x="125" y="280" text-anchor="end" fill="#5a6a7a" font-size="12">8</text>
  <text x="125" y="220" text-anchor="end" fill="#5a6a7a" font-size="12">9</text>
  <text x="125" y="175" text-anchor="end" fill="#5a6a7a" font-size="12">10</text>
  <!-- x ticks -->
  <text x="200" y="420" text-anchor="middle" fill="#5a6a7a" font-size="12">10</text>
  <text x="380" y="420" text-anchor="middle" fill="#5a6a7a" font-size="12">20</text>
  <text x="560" y="420" text-anchor="middle" fill="#5a6a7a" font-size="12">26</text>
  <text x="740" y="420" text-anchor="middle" fill="#5a6a7a" font-size="12">30</text>

  <!-- correct curve approx: 10C~11.3, 20~9.1, 26~8.1, 30~7.6 mapped to chart -->
  <!-- y: 400 = 0, 160 = 10  => y = 400 - do*24 -->
  <path d="M200 129 L380 182 L560 206 L740 218" fill="none" stroke="#38bdf8" stroke-width="3"/>
  <circle cx="380" cy="182" r="6" fill="#34d399"/>
  <text x="390" y="175" fill="#34d399" font-size="14" font-weight="600">20°C ≈ 9.1 mg/L</text>
  <circle cx="560" cy="206" r="6" fill="#34d399"/>
  <text x="570" y="200" fill="#34d399" font-size="14" font-weight="600">26°C ≈ 8.1 mg/L</text>

  <!-- wrong points crossed out -->
  <circle cx="380" cy="280" r="7" fill="none" stroke="#ff5c5c" stroke-width="2"/>
  <line x1="370" y1="270" x2="390" y2="290" stroke="#ff5c5c" stroke-width="2"/>
  <line x1="390" y1="270" x2="370" y2="290" stroke="#ff5c5c" stroke-width="2"/>
  <text x="250" y="275" fill="#ff5c5c" font-size="13">wrong old claim ~5–6</text>
  <circle cx="560" cy="330" r="7" fill="none" stroke="#ff5c5c" stroke-width="2"/>
  <line x1="550" y1="320" x2="570" y2="340" stroke="#ff5c5c" stroke-width="2"/>
  <line x1="570" y1="320" x2="550" y2="340" stroke="#ff5c5c" stroke-width="2"/>
  <text x="580" y="335" fill="#ff5c5c" font-size="13">wrong ~3–4</text>

  <text x="160" y="455" fill="#9aabbc" font-size="13">Target reservoir ~18–22°C + strong aeration. Risk rises with heat + low DO under root demand.</text>
  <text x="48" y="525" fill="#5a6a7a" font-size="12">Fact-check pack · approximate saturation values for education</text>
</svg>
