<svg xmlns="http://www.w3.org/2000/svg" viewBox="0 0 1100 640" font-family="Segoe UI, system-ui, sans-serif">
  <rect width="1100" height="640" fill="#0f1419"/>
  <text x="40" y="42" fill="#e7ecf3" font-size="24" font-weight="700">Moisture content ≠ water activity — read it on the flower</text>
  <text x="40" y="70" fill="#9aabbc" font-size="14">Same bulk “11% moisture” can span unsafe aw. Water activity is about free water at the tissue scale.</text>

  <!-- LEFT: bud cross section -->
  <rect x="36" y="100" width="420" height="480" rx="14" fill="#1a2332" stroke="#2d3a4d"/>
  <text x="56" y="135" fill="#38bdf8" font-size="16" font-weight="700">A · Bud tissue (schematic cutaway)</text>
  <!-- bud shape -->
  <ellipse cx="240" cy="340" rx="130" ry="160" fill="#1e3a2f" stroke="#2a9d8f" stroke-width="2"/>
  <ellipse cx="240" cy="340" rx="90" ry="120" fill="#234a3a"/>
  <ellipse cx="240" cy="340" rx="45" ry="70" fill="#2f5d48"/>
  <!-- water droplets free vs bound -->
  <circle cx="200" cy="300" r="8" fill="#38bdf8" opacity="0.9"/>
  <circle cx="260" cy="320" r="6" fill="#38bdf8" opacity="0.7"/>
  <circle cx="230" cy="360" r="7" fill="#38bdf8" opacity="0.85"/>
  <circle cx="280" cy="280" r="5" fill="#64748b"/>
  <circle cx="190" cy="380" r="5" fill="#64748b"/>
  <circle cx="250" cy="400" r="4" fill="#64748b"/>
  <text x="56" y="520" fill="#38bdf8" font-size="13">● free water (drives aw / mould risk)</text>
  <text x="56" y="545" fill="#94a3b8" font-size="13">● bound / less available water (still in moisture %)</text>
  <text x="56" y="570" fill="#9aabbc" font-size="12">Micro view is conceptual — aw meters measure vapour equilibrium.</text>

  <!-- RIGHT: gauges -->
  <rect x="480" y="100" width="580" height="220" rx="14" fill="#1a2332" stroke="#ff8a4c"/>
  <text x="500" y="135" fill="#ff8a4c" font-size="16" font-weight="700">B · Cheap moisture meter</text>
  <text x="500" y="175" fill="#e7ecf3" font-size="42" font-weight="700">11% moisture</text>
  <text x="500" y="210" fill="#9aabbc" font-size="14">±1% instrument error common</text>
  <text x="500" y="250" fill="#ff5c5c" font-size="15">can mean aw ~0.53 (too dry) …</text>
  <text x="500" y="280" fill="#fbbf24" font-size="15">… or aw ~0.60 (safe) …</text>
  <text x="500" y="310" fill="#ff8a4c" font-size="15">… or aw ~0.66 (mould risk rising)</text>

  <rect x="480" y="340" width="580" height="240" rx="14" fill="#1a2332" stroke="#34d399" stroke-width="2"/>
  <text x="500" y="375" fill="#34d399" font-size="16" font-weight="700">C · Water activity (aw) — the safety gauge</text>
  <rect x="520" y="410" width="500" height="40" rx="8" fill="#2d3a4d"/>
  <rect x="520" y="410" width="150" height="40" rx="8" fill="#7f1d1d"/>
  <rect x="670" y="410" width="200" height="40" fill="#166534"/>
  <rect x="870" y="410" width="150" height="40" rx="0 8 8 0" fill="#9a3412"/>
  <text x="560" y="475" fill="#ff5c5c" font-size="13">&lt;0.55 dry</text>
  <text x="720" y="475" fill="#34d399" font-size="13">0.55–0.65 ASTM</text>
  <text x="900" y="475" fill="#ff8a4c" font-size="13">&gt;0.65 risk</text>
  <text x="500" y="520" fill="#e7ecf3" font-size="18" font-weight="600">Take-down ~0.60–0.62  ·  Finish cure ~0.58–0.60</text>
  <text x="500" y="555" fill="#9aabbc" font-size="13">Mould risk climbs hard near ~0.70+. Steer aw, not moisture alone.</text>

  <text x="40" y="620" fill="#5a6a7a" font-size="12">v2 · fact-check pack · educational (not a lab photo of aw measurement)</text>
</svg>
