<svg xmlns="http://www.w3.org/2000/svg" viewBox="0 0 1200 720" font-family="Segoe UI, system-ui, sans-serif">
  <rect width="1200" height="720" fill="#0b0f14"/>
  <text x="48" y="40" fill="#f1f5f9" font-size="24" font-weight="700">Crop-steering VWC: vegetative vs generative drybacks</text>
  <text x="48" y="68" fill="#94a3b8" font-size="14">Example continuous sensor trace. Y = volumetric water content (%). X = crop day. Probe-native example — not universal media %.</text>

  <rect x="40" y="95" width="1120" height="560" rx="14" fill="#111827" stroke="#334155"/>

  <!-- phase bands -->
  <rect x="120" y="160" width="280" height="380" fill="#0c4a6e" opacity="0.22"/>
  <rect x="400" y="160" width="480" height="380" fill="#713f12" opacity="0.18"/>
  <rect x="880" y="160" width="240" height="380" fill="#4c1d95" opacity="0.18"/>
  <text x="200" y="185" fill="#38bdf8" font-size="14" font-weight="700">VEG / P0</text>
  <text x="560" y="185" fill="#fbbf24" font-size="14" font-weight="700">GENERATIVE P1–P2</text>
  <text x="950" y="185" fill="#c4b5fd" font-size="14" font-weight="700">P3 FINISH</text>

  <!-- grid -->
  <g stroke="#1e293b" stroke-width="1">
    <line x1="120" y1="220" x2="1120" y2="220"/>
    <line x1="120" y1="300" x2="1120" y2="300"/>
    <line x1="120" y1="380" x2="1120" y2="380"/>
    <line x1="120" y1="460" x2="1120" y2="460"/>
    <line x1="120" y1="540" x2="1120" y2="540"/>
  </g>
  <line x1="120" y1="540" x2="1120" y2="540" stroke="#64748b" stroke-width="2"/>
  <line x1="120" y1="540" x2="120" y2="160" stroke="#64748b" stroke-width="2"/>

  <!-- Y: 40% at 540, 80% at 180 → 360 span for 40% -->
  <text x="108" y="545" text-anchor="end" fill="#94a3b8" font-size="12">40%</text>
  <text x="108" y="465" text-anchor="end" fill="#94a3b8" font-size="12">50%</text>
  <text x="108" y="385" text-anchor="end" fill="#94a3b8" font-size="12">60%</text>
  <text x="108" y="305" text-anchor="end" fill="#94a3b8" font-size="12">70%</text>
  <text x="108" y="225" text-anchor="end" fill="#94a3b8" font-size="12">80%</text>
  <text x="50" y="380" fill="#94a3b8" font-size="13" transform="rotate(-90 50 380)">VWC (%)</text>

  <!-- X days 0-42: 120 to 1120 = 1000px / 42 ≈ 23.81 px/day -->
  <text x="120" y="570" fill="#94a3b8" font-size="12">Day 0</text>
  <text x="310" y="570" fill="#94a3b8" font-size="12">Day 8</text>
  <text x="500" y="570" fill="#94a3b8" font-size="12">Day 16</text>
  <text x="690" y="570" fill="#94a3b8" font-size="12">Day 24</text>
  <text x="880" y="570" fill="#94a3b8" font-size="12">Day 32</text>
  <text x="1060" y="570" fill="#94a3b8" font-size="12">Day 42</text>
  <text x="580" y="600" fill="#cbd5e1" font-size="14">Time (crop day)</text>

  <!-- Helper: y(v) = 540 - (v-40)/40*360 = 540 - (v-40)*9 -->
  <!-- veg days 0-12: peak 74 trough 62 = 12 pts -->
  <!-- gen days 12-32: peak 74 trough 50 = 24 pts -->
  <!-- p3 days 32-42: peak 70 trough 58 = 12 pts -->
  <polyline fill="none" stroke="#38bdf8" stroke-width="2.8"
    points="120,234 150,234 165,342 190,234 205,342 230,234 245,342 270,234 285,342 310,234 325,342 350,234 365,342 390,240"/>
  <polyline fill="none" stroke="#fbbf24" stroke-width="2.8"
    points="400,234 430,234 450,450 480,234 500,450 530,234 550,450 580,234 600,450 630,234 650,450 680,234 700,450 730,234 750,450 780,234 800,450 830,240 860,450 880,250"/>
  <polyline fill="none" stroke="#a78bfa" stroke-width="2.8"
    points="890,270 920,270 940,378 970,270 990,378 1020,270 1040,378 1070,280 1090,360 1120,300"/>

  <!-- callouts -->
  <rect x="140" y="620" width="300" height="28" rx="6" fill="#0c4a6e"/>
  <text x="150" y="640" fill="#7dd3fc" font-size="13">Veg dryback ≈ 12 pts (74%→62%)</text>
  <rect x="460" y="620" width="340" height="28" rx="6" fill="#713f12"/>
  <text x="470" y="640" fill="#fcd34d" font-size="13">Generative dryback ≈ 24 pts (74%→50%)</text>
  <rect x="820" y="620" width="300" height="28" rx="6" fill="#4c1d95"/>
  <text x="830" y="640" fill="#ddd6fe" font-size="13">Finish: eased drybacks / lower push</text>

  <text x="48" y="700" fill="#475569" font-size="12">v3 · Complete axes (VWC % vs crop day) · phase bands · example point sizes match mainstream steering polarity</text>
</svg>
